<svg height="559pt" viewBox="-55 -17 559 559.99792" width="559pt" xmlns="http://www.w3.org/2000/svg"><path d="m179.558594 210.082031h84.867187v14.976563h-84.867187zm0 0"/><path d="m149.683594 266.242188h9.90625v-97.347657h-9.90625c-5.179688 0-8.816406 4.347657-8.816406 9.527344v77.808594c0 5.175781 3.632812 10.011719 8.816406 10.011719zm0 0"/><path d="m120.898438 233.792969v-36.195313h-2.921876c-5.210937-.023437-9.472656 4.144532-9.558593 9.351563v17.570312c.09375 5.191407 4.363281 9.335938 9.558593 9.273438zm0 0"/><path d="m303.117188 256.230469v-77.808594c0-5.179687-3.636719-9.527344-8.816407-9.527344h-9.90625v97.347657h9.90625c5.179688 0 8.816407-4.835938 8.816407-10.011719zm0 0"/><path d="m112.074219 433.457031c33.742187 33.832031 70.539062 64.476563 109.917969 91.542969 39.480468-27.148438 76.367187-57.882812 110.191406-91.824219 33.289062-33.664062 59.765625-67.578125 78.695312-100.800781 23.328125-40.921875 35.15625-80.835938 35.15625-118.628906-.003906-117.863282-100.507812-213.746094-224.042968-213.746094-123.539063 0-224.042969 95.882812-224.042969 213.746094 0 37.847656 11.855469 77.820312 35.253906 118.808594 18.976563 33.257812 45.515625 67.203124 78.871094 100.902343zm109.917969-394.390625c99.71875 0 180.84375 81.125 180.84375 180.84375 0 99.722656-81.125 180.847656-180.84375 180.847656-99.722657 0-180.847657-81.125-180.847657-180.847656 0-99.71875 81.125-180.84375 180.847657-180.84375zm0 0"/><path d="m335.566406 224.519531v-17.558593c-.089844-5.210938-4.347656-9.386719-9.5625-9.363282h-2.917968v36.195313h2.917968c5.195313.0625 9.464844-4.082031 9.5625-9.273438zm0 0"/><path d="m221.992188 380.789062c88.847656 0 160.875-72.027343 160.875-160.875 0-88.851562-72.027344-160.875-160.875-160.875-88.851563 0-160.878907 72.023438-160.878907 160.875.101563 88.808594 72.070313 160.777344 160.878907 160.875zm-133.542969-156.269531v-17.570312c.101562-16.230469 13.292969-29.332031 29.527343-29.320313h2.371094c.4375-14.976562 13.425782-28.703125 29.339844-28.703125h19.996094c5.519531.078125 9.933594 4.601563 9.875 10.121094v31.0625h84.867187v-31.0625c-.0625-5.519531 4.359375-10.050781 9.878907-10.121094h19.996093c15.914063 0 28.902344 13.726563 29.339844 28.703125h2.363281c16.234375-.007812 29.433594 13.097656 29.53125 29.332032v17.558593c-.105468 16.222657-13.316406 29.296875-29.53125 29.242188h-2.917968v2.46875c0 16.183593-12.597657 29.980469-28.785157 29.980469h-19.996093c-5.515626 0-9.878907-5.09375-9.878907-10.605469v-30.578125h-84.867187v30.578125c0 5.511719-4.371094 10.605469-9.878906 10.605469h-19.996094c-16.191406 0-28.785156-13.796876-28.785156-29.980469v-2.46875h-2.921876c-16.21875.054687-29.421874-13.019531-29.527343-29.242188zm0 0"/></svg>